<svg id="Layer_1" data-name="Layer 1" xmlns="http://www.w3.org/2000/svg" viewBox="0 0 512 512"><defs><style>.cls-1{fill:#6b287c;}</style></defs><title>moon-outline</title><path class="cls-1" d="M138.81,439a179.77,179.77,0,0,1-25.22-12.74,10.67,10.67,0,1,0-11.06,18.24,200.66,200.66,0,0,0,28.22,14.25,10.56,10.56,0,0,0,4,.8,10.67,10.67,0,0,0,4-20.55Z"/><path class="cls-1" d="M188.47,149.75l18.08,13.13-6.9,21.25a17.27,17.27,0,0,0,26.56,19.31l18.08-13.14,18.08,13.14a17.27,17.27,0,0,0,26.56-19.31L282,162.88l18.08-13.13A17.27,17.27,0,0,0,290,118.51H267.61l-6.91-21.25a17.26,17.26,0,0,0-32.84,0L221,118.51H198.62a17.27,17.27,0,0,0-10.15,31.23Zm40.24-9.9a10.67,10.67,0,0,0,10.15-7.37l5.43-16.71,5.43,16.71a10.66,10.66,0,0,0,10.14,7.37h17.57l-14.22,10.33a10.67,10.67,0,0,0-3.88,11.93l5.43,16.72-14.22-10.33a10.66,10.66,0,0,0-12.54,0L223.8,178.82l5.43-16.72a10.67,10.67,0,0,0-3.88-11.93l-14.22-10.33Z"/><circle class="cls-1" cx="266.67" cy="261.33" r="10.67"/><circle class="cls-1" cx="362.67" cy="197.33" r="10.67"/><circle class="cls-1" cx="309.34" cy="48" r="10.67"/><path class="cls-1" d="M475.65,320.07a80.17,80.17,0,0,0-152.34-15.2,55.85,55.85,0,0,0-60,40.63c-71.88-9-129.29-68.51-134.89-141.28a154.46,154.46,0,0,1,20.6-90.09A26.75,26.75,0,0,0,113.65,77,211.81,211.81,0,0,0,.18,273.08C2.55,329.38,28.37,383.4,71,421.3a10.67,10.67,0,0,0,14.17-15.95c-38.34-34.07-61.55-82.61-63.68-133.16A190.41,190.41,0,0,1,123.5,96a5.11,5.11,0,0,1,6.29,1.18,5,5,0,0,1,.86,6.21,175.69,175.69,0,0,0-23.46,102.47C113.58,289,179.44,357,261.73,366.78A55.87,55.87,0,0,0,317.18,416h6A188.49,188.49,0,0,1,172.4,449.44a10.67,10.67,0,1,0-4.3,20.9,213.62,213.62,0,0,0,33.49,4.15c2.91.12,5.79.18,8.68.18a212.08,212.08,0,0,0,146-58.68h43.93a10.67,10.67,0,1,0,0-21.33h-83a34.4,34.4,0,1,1,0-68.8,35.76,35.76,0,0,1,10.11,1.49A10.66,10.66,0,0,0,340.56,320a58.81,58.81,0,0,1,115.06,10.24,10.66,10.66,0,0,0,9.75,9.6,27.45,27.45,0,0,1-2.28,54.81h-26a10.67,10.67,0,1,0,0,21.33h26a48.77,48.77,0,0,0,12.56-95.92Z"/></svg>